<svg width="234" height="46" viewBox="0 0 234 46" fill="none" xmlns="http://www.w3.org/2000/svg">
<path d="M87.4666 6.31453C84.7502 3.57861 81.3306 1.63348 77.5791 0.690273C73.8373 -0.265601 69.9079 -0.228126 66.1853 0.798991C62.3264 1.85089 58.8188 3.90229 56.0218 6.74297L54.4046 8.35021C51.5201 11.1437 49.4321 14.6453 48.3528 18.4993C47.3013 22.1861 47.257 26.0842 48.2246 29.7935C49.2318 33.5087 51.2045 36.8961 53.9451 39.6167C56.6857 42.3374 60.098 44.2958 63.8407 45.2962C67.583 46.2697 71.5195 46.2322 75.2422 45.1874C79.1256 44.1172 82.6543 42.0453 85.4694 39.1825L87.0864 37.5753C89.9484 34.7985 92.0155 31.3165 93.0759 27.486C94.1114 23.791 94.1491 19.8906 93.1854 16.1766C92.2222 12.4326 90.2444 9.02186 87.4666 6.31453ZM86.1244 21.5627C84.526 24.6258 82.4478 27.4176 79.9674 29.8338L77.6667 32.1174C75.2264 34.5856 72.4081 36.6552 69.3164 38.2495C66.7772 39.6307 63.9597 40.4328 61.0689 40.5973C59.9751 40.7246 58.8664 40.6044 57.826 40.2456C56.7856 39.8869 55.8406 39.299 55.0618 38.5259C54.283 37.7529 53.6907 36.8149 53.3293 35.7822C52.9678 34.7496 52.8467 33.6491 52.975 32.5633C53.1405 29.694 53.9481 26.8975 55.3392 24.377C56.9464 21.3082 59.0322 18.5109 61.5192 16.0885L63.8199 13.8049C66.2515 11.342 69.0621 9.27838 72.1463 7.69123C74.6803 6.32283 77.4883 5.52881 80.3685 5.36627C81.4627 5.23855 82.5719 5.35855 83.6128 5.71725C84.6536 6.07595 85.5991 6.66401 86.3781 7.43732C87.1572 8.21064 87.7497 9.14908 88.1111 10.1822C88.4725 11.2154 88.5932 12.3163 88.4645 13.4025C88.3003 16.2592 87.5011 19.0444 86.1244 21.5583V21.5627Z" fill="#E1FD2C"/>
<path d="M137.302 6.31453C134.586 3.57861 131.166 1.63348 127.415 0.690273C123.673 -0.265601 119.744 -0.228126 116.021 0.798991C112.162 1.85089 108.655 3.90229 105.858 6.74297L104.241 8.35021C101.356 11.1435 99.2684 14.6453 98.1898 18.4993C97.1385 22.1861 97.0938 26.084 98.0605 29.7935C99.069 33.5084 101.042 36.8955 103.783 39.616C106.524 42.3365 109.936 44.2952 113.679 45.2962C117.419 46.2687 121.352 46.2311 125.073 45.1874C128.956 44.1171 132.485 42.0452 135.3 39.1825L136.919 37.5753C139.78 34.7984 141.846 31.3164 142.905 27.486C143.941 23.7911 143.979 19.8906 143.015 16.1766C142.054 12.4329 140.079 9.02203 137.302 6.31453ZM135.96 21.5627C134.362 24.6258 132.284 27.4177 129.803 29.8338L127.503 32.1174C125.062 34.5859 122.243 36.6555 119.151 38.2495C116.612 39.6309 113.795 40.433 110.904 40.5973C109.81 40.7246 108.701 40.6044 107.661 40.2456C106.62 39.8869 105.675 39.299 104.897 38.5259C104.118 37.7529 103.525 36.8149 103.164 35.7822C102.803 34.7496 102.681 33.6491 102.81 32.5633C102.976 29.6941 103.784 26.8977 105.175 24.377C106.782 21.3084 108.868 18.5111 111.354 16.0885L113.655 13.8049C116.087 11.3426 118.897 9.279 121.981 7.69123C124.515 6.32306 127.323 5.52906 130.203 5.36627C131.297 5.23855 132.407 5.35855 133.447 5.71725C134.488 6.07595 135.434 6.66401 136.213 7.43732C136.992 8.21064 137.584 9.14908 137.946 10.1822C138.307 11.2154 138.428 12.3163 138.299 13.4025C138.135 16.2592 137.336 19.0444 135.959 21.5583L135.96 21.5627Z" fill="#E1FD2C"/>
<path d="M191.936 12.5379H221.537L189.827 40.9203V43.8781H233.276V33.4104H202.373L233.999 5.09876V2.06587H191.935L191.936 12.5379Z" fill="#E1FD2C"/>
<path d="M40.996 2.01151V37.2153L10.5459 2.01151H-0.00106812V43.8781H3.11577V8.67755L33.5659 43.8814H44.1128V2.01477H40.996V2.01151Z" fill="#E1FD2C"/>
<path d="M186.814 12.0889C185.001 8.95324 182.34 6.38384 179.132 4.67139C175.712 2.8633 171.885 1.94802 168.011 2.01152H147.883V43.8781H168.011C171.895 43.954 175.74 43.1022 179.222 41.3944C182.43 39.7854 185.082 37.2659 186.844 34.1564C188.738 30.7231 189.683 26.8535 189.583 22.9405C189.653 19.1428 188.697 15.3957 186.814 12.0889ZM185.246 28.5985C183.095 30.5076 180.543 31.919 177.776 32.7307C174.464 33.7734 171.006 34.2873 167.531 34.2532H164.276C160.792 34.2862 157.325 33.7724 154.002 32.7307C152.977 32.4002 151.975 32.0054 151 31.5487V14.2887C151.975 13.8325 152.978 13.4374 154.002 13.1056C157.325 12.0639 160.792 11.5501 164.276 11.5832H167.531C171.006 11.549 174.464 12.0629 177.776 13.1056C180.543 13.9192 183.094 15.3304 185.246 17.2379C186.111 17.9158 186.809 18.779 187.289 19.763C187.769 20.7469 188.018 21.826 188.018 22.9193C188.018 24.0125 187.769 25.0916 187.289 26.0755C186.809 27.0595 186.111 27.9228 185.246 28.6006V28.5985Z" fill="#E1FD2C"/>
</svg>
